# xmcd
#
# Track frame offsets:
#	185
#	22857
#	37350
#	53587
#	75060
#	91767
#	106415
#	119020
#	138930
#	154177
#	171010
#	186035
#	201090
#	215962
#	225000
#
# Disc length: 3216 seconds
#
# Revision: 1
# Processed by: cddbd v1.5.1PL0 Copyright (c) Steve Scherf et al.
# Submitted via: audiograbber 1.83.01
#
DISCID=b90c8e0f
DTITLE=The Shadows - It Ain't Easy Being Sleazy
DYEAR=1993
DGENRE=Blues
TTITLE0=Leavin Town
TTITLE1=Just to be with you
TTITLE2=Drivin me crazy
TTITLE3=Leave your radio on
TTITLE4=Wintertime Blues
TTITLE5=Poison Girl
TTITLE6=Big leg mama
TTITLE7=Better find somebody
TTITLE8=The fire below
TTITLE9=Bloodstains
TTITLE10=Ice Cream Man
TTITLE11=Don't leave me out
TTITLE12=Hard Times
TTITLE13=Lightening bug blues
TTITLE14=The fire below
EXTD=
EXTT0=
EXTT1=
EXTT2=
EXTT3=
EXTT4=
EXTT5=
EXTT6=
EXTT7=
EXTT8=
EXTT9=
EXTT10=
EXTT11=
EXTT12=
EXTT13=
EXTT14=
PLAYORDER=
